<?xml version="1.0" encoding="UTF-8"?>
<svg id="Livello_1" data-name="Livello 1" xmlns="http://www.w3.org/2000/svg" viewBox="0 0 1190.55 841.89">
  <defs>
    <style>
      .cls-1 {
        fill: #1d1d1b;
      }
    </style>
  </defs>
  <g>
    <polygon class="cls-1" points="443.92 496.62 595.28 496.62 746.63 496.62 595.28 193.91 443.92 496.62"/>
    <polygon class="cls-1" points="292.56 496.62 443.92 496.62 292.56 193.91 292.56 496.62"/>
    <polygon class="cls-1" points="746.63 496.62 897.99 496.62 897.99 193.91 746.63 496.62"/>
  </g>
  <g>
    <path class="cls-1" d="M292.56,574.98h18.33l14.81,47.04,15.43-47.04h18.02l15.42,47.04,14.81-47.04h18.33l-26.27,71.17h-14.05l-17.26-50.7-17.25,50.7h-14.05l-26.27-71.17Z"/>
    <path class="cls-1" d="M473.37,616.06h-52.84c.46,11.3,7.79,17.41,19.86,17.41,8.24,0,13.13-2.6,15.88-8.1h16.8c-2.14,13.29-15.57,22.6-32.68,22.6-22.45,0-36.35-14.36-36.35-37.42s14.05-37.41,35.74-37.41c20.31,0,34.05,13.74,34.05,33.75,0,3.21-.15,4.89-.46,9.16ZM457.49,603.39c-.15-11-6.57-17.1-18.02-17.1s-18.78,7.02-18.94,17.1h36.96Z"/>
    <path class="cls-1" d="M477.46,552.38c0-6.87,5.04-12.37,12.37-12.37s12.37,5.5,12.37,12.37-5.04,12.37-12.37,12.37-12.37-5.5-12.37-12.37ZM481.43,574.98h16.64v71.17h-16.64v-71.17Z"/>
    <path class="cls-1" d="M504.88,624.31h16.65c0,6.11,5.95,10.38,14.51,10.38,6.26,0,10.24-3.36,10.24-8.4,0-3.2-1.22-6.41-5.35-7.48l-18.33-5.04c-10.53-2.9-15.42-10.23-15.42-19.7,0-11.61,10.84-20.92,27.34-20.92,18.63,0,28.1,9.47,28.1,22.14h-16.34c0-5.95-4.58-9.47-12.37-9.47-5.81,0-10.24,2.9-10.24,7.33,0,3.97,2.44,6.57,6.11,7.63l16.96,4.89c9.62,2.75,16.49,9.93,16.49,19.09,0,13.59-9.93,23.21-28.1,23.21s-30.24-10.69-30.24-23.67Z"/>
    <path class="cls-1" d="M566.81,624.31h16.65c0,6.11,5.95,10.38,14.51,10.38,6.26,0,10.23-3.36,10.23-8.4,0-3.2-1.22-6.41-5.34-7.48l-18.33-5.04c-10.54-2.9-15.43-10.23-15.43-19.7,0-11.61,10.85-20.92,27.34-20.92,18.63,0,28.1,9.47,28.1,22.14h-16.34c0-5.95-4.58-9.47-12.37-9.47-5.81,0-10.23,2.9-10.23,7.33,0,3.97,2.44,6.57,6.11,7.63l16.95,4.89c9.62,2.75,16.49,9.93,16.49,19.09,0,13.59-9.93,23.21-28.1,23.21s-30.24-10.69-30.24-23.67Z"/>
    <path class="cls-1" d="M628.4,610.56c0-22.15,13.29-37.41,35.43-37.41,19.86,0,32.22,10.84,33.75,27.18h-16.65c-1.83-8.1-7.02-12.37-17.1-12.37-11.76,0-18.78,8.1-18.78,22.6s7.02,22.6,18.78,22.6c10.08,0,15.27-4.12,17.1-11.61h16.65c-1.53,15.88-13.9,26.42-33.75,26.42-22.14,0-35.43-15.27-35.43-37.42Z"/>
    <path class="cls-1" d="M700.23,610.56c0-20.92,13.29-37.41,35.43-37.41,9.47,0,18.02,4.27,22.3,11.45v-9.62h16.65v71.17h-16.65v-9.62c-4.28,7.18-14.05,11.45-22.76,11.45-22.91,0-34.97-16.49-34.97-37.42ZM758.72,610.56c0-12.22-6.87-22.6-21.08-22.6-12.98,0-20.77,9.62-20.77,22.6s7.79,22.6,20.77,22.6c14.2,0,21.08-10.38,21.08-22.6Z"/>
    <path class="cls-1" d="M810.2,564.29v10.69h18.63v13.9h-18.63v57.27h-16.65v-57.27h-14.51v-13.9h14.51v-10.38c0-22.91,16.65-26.27,24.13-26.27,5.19,0,8.86.62,11.14,1.38v14.05c-2.29-.15-4.12-.61-6.57-.61-5.04,0-12.06.76-12.06,11.15Z"/>
    <path class="cls-1" d="M897.53,616.06h-52.84c.46,11.3,7.79,17.41,19.86,17.41,8.24,0,13.13-2.6,15.88-8.1h16.8c-2.14,13.29-15.57,22.6-32.68,22.6-22.45,0-36.35-14.36-36.35-37.42s14.05-37.41,35.74-37.41c20.31,0,34.05,13.74,34.05,33.75,0,3.21-.15,4.89-.46,9.16ZM881.65,603.39c-.15-11-6.57-17.1-18.02-17.1s-18.78,7.02-18.94,17.1h36.96Z"/>
    <polygon class="cls-1" points="886.88 553.7 881.21 540.33 838.34 556.65 844 570.01 886.88 553.7"/>
  </g>
</svg>